<svg width="33" height="33" viewBox="0 0 33 33" fill="none" xmlns="http://www.w3.org/2000/svg">
<g id="contact_vk 1">
<path id="Vector" d="M19.1667 26.0374H13.8334C11.0044 26.0374 8.29126 24.9136 6.29089 22.9132C4.2905 20.9129 3.16669 18.1997 3.16669 15.3708V8.7041H8.50002V15.3708C8.50002 16.7852 9.06192 18.1418 10.0622 19.142C11.0623 20.1422 12.4189 20.7041 13.8334 20.7041V8.7041H19.1667V14.7041L19.2067 14.6988C20.668 14.5164 22.0125 13.8066 22.9873 12.7027C23.962 11.5987 24.4999 10.1768 24.5 8.7041H29.8334L29.3774 10.9854C29.1042 12.3509 28.5229 13.6359 27.6776 14.7425C26.8324 15.8491 25.7455 16.7481 24.5 17.3708C25.7111 17.7743 26.7915 18.4959 27.628 19.4603C28.4645 20.4246 29.0263 21.5961 29.2547 22.8521L29.8334 26.0374H24.5C24.4999 24.5647 23.962 23.1428 22.9873 22.0389C22.0125 20.935 20.668 20.2251 19.2067 20.0428V26.0428L19.1667 26.0374Z" stroke="#F0E3CA" stroke-width="3" stroke-linecap="round" stroke-linejoin="round"/>
</g>
</svg>
