<svg width="33" height="33" viewBox="0 0 33 33" fill="none" xmlns="http://www.w3.org/2000/svg">
<g id="contact_mail 1">
<path id="Vector" d="M27.1667 30.0374H5.83335C5.12611 30.0374 4.44783 29.7564 3.94774 29.2564C3.44764 28.7563 3.16669 28.0779 3.16669 27.3708V12.7694C3.18885 12.3287 3.31839 11.9 3.54404 11.5208C3.76968 11.1415 4.08458 10.8232 4.46135 10.5934L15.128 4.19341C15.5423 3.945 16.0163 3.81378 16.4993 3.81378C16.9824 3.81378 17.4564 3.945 17.8707 4.19341L28.5374 10.5934C29.3386 11.0774 29.8307 11.9441 29.8334 12.8801V27.3708C29.8334 28.0779 29.5524 28.7563 29.0523 29.2564C28.5522 29.7564 27.874 30.0374 27.1667 30.0374ZM5.83335 13.8614V27.3708H27.1667V13.8614L16.5 20.972L5.83335 13.8614ZM16.5 6.48007L7.58802 11.8267L16.5 17.7681L25.4107 11.8267L16.5 6.48007Z" fill="#F0E3CA"/>
</g>
</svg>
